<?xml version="1.0" encoding="utf-8"?>
<!-- Generator: Adobe Illustrator 28.0.0, SVG Export Plug-In . SVG Version: 6.00 Build 0)  -->
<svg version="1.1" id="Layer_1" xmlns="http://www.w3.org/2000/svg" xmlns:xlink="http://www.w3.org/1999/xlink" x="0px" y="0px"
	 viewBox="0 0 448 449.3" style="enable-background:new 0 0 448 449.3;" xml:space="preserve">
<style type="text/css">
	.st0{fill:#5FE1D0;}
</style>
<path class="st0" d="M224.1,109.6c-63.6,0-114.9,51.3-114.9,114.9s51.3,114.9,114.9,114.9S339,288.1,339,224.5
	S287.7,109.6,224.1,109.6z M224.1,299.2c-41.1,0-74.7-33.5-74.7-74.7s33.5-74.7,74.7-74.7s74.7,33.5,74.7,74.7
	S265.2,299.2,224.1,299.2L224.1,299.2z M370.5,104.9c0,14.9-12,26.8-26.8,26.8c-14.9,0-26.8-12-26.8-26.8s12-26.8,26.8-26.8
	S370.5,90.1,370.5,104.9z M446.6,132.1c-1.7-35.9-9.9-67.7-36.2-93.9C384.2,12,352.4,3.8,316.5,2c-37-2.1-147.9-2.1-184.9,0
	C95.8,3.7,64,11.9,37.7,38.1S3.3,96.1,1.5,132c-2.1,37-2.1,147.9,0,184.9c1.7,35.9,9.9,67.7,36.2,93.9s58,34.4,93.9,36.2
	c37,2.1,147.9,2.1,184.9,0c35.9-1.7,67.7-9.9,93.9-36.2c26.2-26.2,34.4-58,36.2-93.9C448.7,279.9,448.7,169.1,446.6,132.1
	L446.6,132.1z M398.8,356.6c-7.8,19.6-22.9,34.7-42.6,42.6c-29.5,11.7-99.5,9-132.1,9s-102.7,2.6-132.1-9
	c-19.6-7.8-34.7-22.9-42.6-42.6c-11.7-29.5-9-99.5-9-132.1s-2.6-102.7,9-132.1C57.2,72.8,72.3,57.7,92,49.8
	c29.5-11.7,99.5-9,132.1-9s102.7-2.6,132.1,9c19.6,7.8,34.7,22.9,42.6,42.6c11.7,29.5,9,99.5,9,132.1S410.5,327.2,398.8,356.6z"/>
</svg>
